<svg width="76" height="52" viewBox="0 0 76 52" fill="none" xmlns="http://www.w3.org/2000/svg">
<g filter="url(#filter0_i_1843_578)">
<path d="M50.6133 24H47.2617V10.5586H42.2109V7.19534H55.6523V10.5586H50.6133V24ZM67.2539 17.6133C67.2539 18.5508 67.0859 19.4258 66.75 20.2383C66.4141 21.043 65.957 21.7422 65.3789 22.336C64.8008 22.9219 64.1211 23.3867 63.3398 23.7305C62.5664 24.0664 61.7344 24.2344 60.8438 24.2344C59.9609 24.2344 59.1289 24.0664 58.3477 23.7305C57.5742 23.3867 56.8945 22.9219 56.3086 22.336C55.7305 21.7422 55.2734 21.043 54.9375 20.2383C54.6016 19.4258 54.4336 18.5508 54.4336 17.6133C54.4336 16.6602 54.6016 15.7774 54.9375 14.9649C55.2734 14.1524 55.7305 13.4532 56.3086 12.8672C56.8945 12.2735 57.5742 11.8086 58.3477 11.4727C59.1289 11.1367 59.9609 10.9688 60.8438 10.9688C61.7344 10.9688 62.5664 11.1289 63.3398 11.4492C64.1211 11.7617 64.8008 12.211 65.3789 12.7969C65.957 13.375 66.4141 14.0742 66.75 14.8946C67.0859 15.7071 67.2539 16.6133 67.2539 17.6133ZM64.0312 17.6133C64.0312 17.0977 63.9453 16.6328 63.7734 16.2188C63.6094 15.7969 63.3828 15.4375 63.0938 15.1407C62.8047 14.836 62.4648 14.6055 62.0742 14.4492C61.6914 14.2852 61.2812 14.2032 60.8438 14.2032C60.4062 14.2032 59.9922 14.2852 59.6016 14.4492C59.2188 14.6055 58.8828 14.836 58.5938 15.1407C58.3125 15.4375 58.0898 15.7969 57.9258 16.2188C57.7617 16.6328 57.6797 17.0977 57.6797 17.6133C57.6797 18.0977 57.7617 18.5469 57.9258 18.961C58.0898 19.375 58.3125 19.7344 58.5938 20.0391C58.8828 20.3438 59.2188 20.586 59.6016 20.7657C59.9922 20.9375 60.4062 21.0235 60.8438 21.0235C61.2812 21.0235 61.6914 20.9414 62.0742 20.7774C62.4648 20.6133 62.8047 20.3828 63.0938 20.086C63.3828 19.7891 63.6094 19.4297 63.7734 19.0078C63.9453 18.586 64.0312 18.1211 64.0312 17.6133Z" fill="#344756"/>
</g>
<g filter="url(#filter1_i_1843_578)">
<path d="M58.0234 38.5977C58.0234 39.3711 57.9219 40.1172 57.7188 40.836C57.5234 41.5469 57.2422 42.2149 56.875 42.8399C56.5078 43.4571 56.0703 44.0235 55.5625 44.5391C55.0547 45.0469 54.4883 45.4844 53.8633 45.8516C53.2383 46.2188 52.5664 46.5039 51.8477 46.7071C51.1367 46.9024 50.3945 47 49.6211 47H44.5586V30.1953H49.6211C50.3945 30.1953 51.1367 30.2969 51.8477 30.5C52.5664 30.6953 53.2383 30.9766 53.8633 31.3438C54.4883 31.711 55.0547 32.1524 55.5625 32.668C56.0703 33.1758 56.5078 33.7422 56.875 34.3672C57.2422 34.9844 57.5234 35.6524 57.7188 36.3711C57.9219 37.0821 58.0234 37.8242 58.0234 38.5977ZM54.6602 38.5977C54.6602 37.9024 54.5273 37.25 54.2617 36.6407C54.0039 36.0313 53.6445 35.5 53.1836 35.0469C52.7305 34.586 52.1953 34.2227 51.5781 33.9571C50.9688 33.6914 50.3164 33.5586 49.6211 33.5586H47.9453V43.6367H49.6211C50.3164 43.6367 50.9688 43.5078 51.5781 43.25C52.1953 42.9844 52.7305 42.625 53.1836 42.1719C53.6445 41.711 54.0039 41.1758 54.2617 40.5664C54.5273 39.9492 54.6602 39.293 54.6602 38.5977Z" fill="#2D3E4B"/>
</g>
<path d="M72 40.5C72 42.0188 71.3844 43.3938 70.3891 44.3891C69.3938 45.3844 68.0188 46 66.5 46C64.9812 46 63.6062 45.3844 62.6109 44.3891C61.6156 43.3938 61 42.0188 61 40.5C61 38.9813 61.6156 37.6063 62.6109 36.6109C63.6062 35.6156 64.9812 35 66.5 35" stroke="#2D3D4A" stroke-width="2.3" stroke-linecap="round" stroke-linejoin="round"/>
<path d="M63.9333 39.4L66.3778 42.3334L71.2667 36.4667" stroke="#0D6EFD" stroke-width="1.5" stroke-linecap="round" stroke-linejoin="round"/>
<g clip-path="url(#clip0_1843_578)">
<path d="M39.2092 38.2225L39.2237 45.7225C39.225 46.4125 38.6101 46.9735 37.8511 46.9747L29.6011 46.9879C28.8421 46.9891 28.225 46.4301 28.2237 45.7401C28.2223 45.0501 28.8373 44.4891 29.5963 44.4879L36.4712 44.4769L36.4592 38.2269C36.4578 37.5369 37.0728 36.976 37.8318 36.9747C38.5908 36.9735 39.2078 37.5325 39.2092 38.2225ZM15.7763 8.25991C15.7776 8.94991 15.1627 9.51089 14.4037 9.5121L7.52869 9.52308L7.54076 15.7731C7.54209 16.4631 6.92717 17.0241 6.16817 17.0253C5.40918 17.0265 4.79209 16.4675 4.79076 15.7775L4.77627 8.27747C4.77494 7.58748 5.38986 7.02649 6.14886 7.02528L14.3988 7.01211C15.1578 7.0109 15.7749 7.56991 15.7763 8.25991ZM7.58422 38.273L7.5963 44.523L14.4713 44.5121C15.2303 44.5108 15.8474 45.0699 15.8487 45.7599C15.85 46.4499 15.2351 47.0108 14.4761 47.012L6.22613 47.0252C5.46713 47.0264 4.85005 46.4674 4.84871 45.7774L4.83423 38.2774C4.83289 37.5874 5.44781 37.0264 6.20681 37.0252C6.96581 37.024 7.58289 37.583 7.58422 38.273ZM39.1512 8.22259L39.1657 15.7226C39.167 16.4126 38.5521 16.9736 37.7931 16.9748C37.0341 16.976 36.417 16.417 36.4157 15.727L36.4036 9.47698L29.5287 9.48796C28.7697 9.48917 28.1526 8.93016 28.1512 8.24016C28.1499 7.55016 28.7648 6.98917 29.5238 6.98796L37.7738 6.97479C38.5328 6.97358 39.1499 7.5326 39.1512 8.22259Z" fill="#263540"/>
</g>
<path d="M11.6525 24.2539C11.6525 23.5007 11.7964 22.7939 12.0842 22.1338C12.3719 21.4736 12.7613 20.8981 13.2521 20.4072C13.7515 19.9079 14.3312 19.5143 14.9914 19.2266C15.6516 18.9388 16.3583 18.7949 17.1115 18.7949H25.465V22.4385H17.1115C16.8576 22.4385 16.6206 22.485 16.4006 22.5781C16.1805 22.6712 15.9859 22.8024 15.8166 22.9717C15.6558 23.1325 15.5288 23.3229 15.4357 23.543C15.3426 23.763 15.2961 24 15.2961 24.2539C15.2961 24.5078 15.3426 24.749 15.4357 24.9775C15.5288 25.1976 15.6558 25.3923 15.8166 25.5615C15.9859 25.7223 16.1805 25.8493 16.4006 25.9424C16.6206 26.0355 16.8576 26.082 17.1115 26.082H20.7551C21.5083 26.082 22.215 26.2259 22.8752 26.5137C23.5438 26.793 24.1236 27.1823 24.6145 27.6816C25.1138 28.1725 25.5031 28.7523 25.7824 29.4209C26.0702 30.0811 26.2141 30.7878 26.2141 31.541C26.2141 32.2943 26.0702 33.001 25.7824 33.6611C25.5031 34.3213 25.1138 34.901 24.6145 35.4004C24.1236 35.8913 23.5438 36.2806 22.8752 36.5684C22.215 36.8561 21.5083 37 20.7551 37H12.6682V33.3564H20.7551C21.009 33.3564 21.246 33.3099 21.466 33.2168C21.6861 33.1237 21.8765 32.9967 22.0373 32.8359C22.2066 32.6667 22.3378 32.472 22.4309 32.252C22.524 32.0319 22.5705 31.7949 22.5705 31.541C22.5705 31.2871 22.524 31.0501 22.4309 30.8301C22.3378 30.61 22.2066 30.4196 22.0373 30.2588C21.8765 30.0895 21.6861 29.9583 21.466 29.8652C21.246 29.7721 21.009 29.7256 20.7551 29.7256H17.1115C16.3583 29.7256 15.6516 29.5817 14.9914 29.2939C14.3312 29.0062 13.7515 28.6169 13.2521 28.126C12.7613 27.6266 12.3719 27.0469 12.0842 26.3867C11.7964 25.7181 11.6525 25.0072 11.6525 24.2539Z" fill="#2C3D4A"/>
<path d="M32.3332 19.709C32.3332 20.0306 32.2697 20.3311 32.1428 20.6104C32.0243 20.8896 31.8592 21.1351 31.6477 21.3467C31.4361 21.5498 31.1864 21.7148 30.8986 21.8418C30.6193 21.9603 30.3189 22.0195 29.9973 22.0195C29.6757 22.0195 29.371 21.9603 29.0832 21.8418C28.8039 21.7148 28.5585 21.5498 28.3469 21.3467C28.1437 21.1351 27.9787 20.8896 27.8518 20.6104C27.7333 20.3311 27.674 20.0306 27.674 19.709C27.674 19.3958 27.7333 19.0996 27.8518 18.8203C27.9787 18.5326 28.1437 18.2871 28.3469 18.084C28.5585 17.8724 28.8039 17.7074 29.0832 17.5889C29.371 17.4619 29.6757 17.3984 29.9973 17.3984C30.3189 17.3984 30.6193 17.4619 30.8986 17.5889C31.1864 17.7074 31.4361 17.8724 31.6477 18.084C31.8592 18.2871 32.0243 18.5326 32.1428 18.8203C32.2697 19.0996 32.3332 19.3958 32.3332 19.709ZM31.7365 37H28.2453V23.4033H31.7365V37Z" fill="#0D6EFD"/>
<defs>
<filter id="filter0_i_1843_578" x="42.2109" y="7.19534" width="25.043" height="17.0391" filterUnits="userSpaceOnUse" color-interpolation-filters="sRGB">
<feFlood flood-opacity="0" result="BackgroundImageFix"/>
<feBlend mode="normal" in="SourceGraphic" in2="BackgroundImageFix" result="shape"/>
<feColorMatrix in="SourceAlpha" type="matrix" values="0 0 0 0 0 0 0 0 0 0 0 0 0 0 0 0 0 0 127 0" result="hardAlpha"/>
<feOffset/>
<feGaussianBlur stdDeviation="4"/>
<feComposite in2="hardAlpha" operator="arithmetic" k2="-1" k3="1"/>
<feColorMatrix type="matrix" values="0 0 0 0 0 0 0 0 0 0 0 0 0 0 0 0 0 0 0.25 0"/>
<feBlend mode="normal" in2="shape" result="effect1_innerShadow_1843_578"/>
</filter>
<filter id="filter1_i_1843_578" x="44.5586" y="30.1953" width="13.4648" height="16.8047" filterUnits="userSpaceOnUse" color-interpolation-filters="sRGB">
<feFlood flood-opacity="0" result="BackgroundImageFix"/>
<feBlend mode="normal" in="SourceGraphic" in2="BackgroundImageFix" result="shape"/>
<feColorMatrix in="SourceAlpha" type="matrix" values="0 0 0 0 0 0 0 0 0 0 0 0 0 0 0 0 0 0 127 0" result="hardAlpha"/>
<feOffset/>
<feGaussianBlur stdDeviation="4"/>
<feComposite in2="hardAlpha" operator="arithmetic" k2="-1" k3="1"/>
<feColorMatrix type="matrix" values="0 0 0 0 0 0 0 0 0 0 0 0 0 0 0 0 0 0 0.25 0"/>
<feBlend mode="normal" in2="shape" result="effect1_innerShadow_1843_578"/>
</filter>
<clipPath id="clip0_1843_578">
<rect width="44" height="40" fill="white" transform="matrix(-1 0 0 1 44 7)"/>
</clipPath>
</defs>
</svg>
